# xmcd
#
# Track frame offsets: 
#        150
#        16307
#        28437
#        54132
#        70643
#        80083
#        94615
#        110366
#        120904
#        136017
#        154687
#        189813
#
# Disc length: 2779 seconds
#
# Revision: 0
# Processed by: cddbd v1.5.2PL0 Copyright (c) Steve Scherf et al.
# Submitted via: ExactAudioCopyFreeDBPlugin 1.0
#
DISCID=870ad90c
DTITLE=柴田聡子 - SHIBATA SATOKO LIVE SOUVENIR
DYEAR=2015
DGENRE=
TTITLE0=部屋を買おう
TTITLE1=はやいスピード
TTITLE2=いきすぎた友達
TTITLE3=ふしぎね
TTITLE4=とさだより
TTITLE5=お別れの夜
TTITLE6=結婚しようか
TTITLE7=無題1
TTITLE8=愛と情
TTITLE9=ほのー
TTITLE10=長い歌
TTITLE11=三つ子
EXTD=
EXTT0=
EXTT1=
EXTT2=
EXTT3=
EXTT4=
EXTT5=
EXTT6=
EXTT7=
EXTT8=
EXTT9=
EXTT10=
EXTT11=
PLAYORDER=
